#!OML:ASF \\sashay\E\basketball\basketball\Project 1\Capture day 1\Session 1\Subject.ASF
:FULLY-SPECIFIED
:DEGREES
194
root 21.9667 14.0901 -13.6317 -241.208 81.9112 -255.21
lowerback 18.1017 -5.90888 -7.05366
upperback 8.28793 -8.23561 -0.112993
thorax -0.108341 -4.06925 5.19828
lowerneck -11.6848 0.231174 -14.6705
upperneck -9.03711 3.19401 17.2516
head -1.13949 2.22233 7.90881
rclavicle 1.4392e-013 -3.93594e-014
rhumerus -12.1953 9.07695 -89.4295
rradius 59.0831
rwrist -21.014
rhand -33.0874 34.3179
rfingers 7.12502
rthumb -6.29855 4.43151
lclavicle 1.4392e-013 -3.93594e-014
lhumerus -0.801229 17.8531 77.8936
lradius 33.8339
lwrist -17.8103
lhand -26.0393 45.437
lfingers 7.12502
lthumb 0.507785 75.4161
rfemur -61.4131 -6.21934 34.1095
rtibia 53.2337
rfoot -6.40824 4.01954
rtoes 15.6547
lfemur 22.6289 16.0234 -19.8688
ltibia 60.1009
lfoot 0.406086 4.24422
ltoes -31.9232
195
root 22.5118 14.0804 -13.7065 -244.401 83.2207 -258.26
lowerback 18.4286 -5.71479 -6.01796
upperback 8.03884 -7.86299 0.300748
thorax -0.693731 -3.84691 5.07625
lowerneck -11.6658 0.42886 -14.6795
upperneck -9.20108 3.44984 16.6744
head -1.23588 2.34786 7.72021
rclavicle 4.81059e-014 -9.14409e-015
rhumerus -11.6935 9.50021 -89.9506
rradius 59.1985
rwrist -19.8972
rhand -32.4698 35.3952
rfingers 7.12502
rthumb -5.70235 5.49189
lclavicle 4.81059e-014 -9.14409e-015
lhumerus -3.94203 17.1693 78.013
lradius 38.309
lwrist -13.3752
lhand -26.4521 44.1348
lfingers 7.12502
lthumb 0.109117 74.1146
rfemur -61.224 -5.23116 35.0414
rtibia 56.7026
rfoot -8.68477 2.13612
rtoes 15.8986
lfemur 20.1384 18.4398 -17.1637
ltibia 67.1313
lfoot -0.394708 5.66125
ltoes -28.5681
196
root 23.0006 13.9478 -13.769 -251.272 84.339 -264.939
lowerback 18.4779 -5.19725 -5.38304
upperback 8.09958 -7.08356 0.53605
thorax -0.808904 -3.44804 4.85873
lowerneck -10.8883 0.376161 -15.0105
upperneck -10.3011 3.45591 16.7241
head -1.68422 2.33449 7.78917
rclavicle 1.94809e-014 -1.51076e-014
rhumerus -11.4056 9.14869 -90.5143
rradius 59.8044
rwrist -18.9518
rhand -32.0164 36.6179
rfingers 7.12502
rthumb -5.26459 6.70328
lclavicle 1.94809e-014 -1.51076e-014
lhumerus -6.20543 15.1726 78.2106
lradius 42.5677
lwrist -9.67123
lhand -26.8426 42.6816
lfingers 7.12502
lthumb -0.26804 72.6612
rfemur -60.3872 -3.93048 35.9597
rtibia 59.7452
rfoot -11.2135 -1.26427
rtoes 10.2005
lfemur 17.7844 20.7362 -14.5495
ltibia 74.3022
lfoot -1.34014 7.16581
ltoes -24.2084
197
root 23.5204 13.8784 -13.8258 -264.054 85.4622 -277.534
lowerback 18.1957 -4.42849 -4.58421
upperback 8.36071 -5.92692 0.674809
thorax -0.599298 -2.86617 4.33806
lowerneck -10.2706 0.0713277 -14.8499
upperneck -11.4736 3.08562 16.5907
head -2.0593 2.12908 7.7157
rclavicle 4.35338e-014 -2.10712e-014
rhumerus -11.2324 8.19771 -91.0905
rradius 60.6915
rwrist -17.9626
rhand -31.8085 37.5536
rfingers 7.12502
rthumb -5.06383 7.63411
lclavicle 4.35338e-014 -2.10712e-014
lhumerus -7.81027 12.4052 78.5158
lradius 46.3254
lwrist -7.41098
lhand -26.6859 41.1639
lfingers 7.12502
lthumb -0.116708 71.1436
rfemur -58.7328 -3.19637 37.1485
rtibia 61.955
rfoot -13.7419 -4.40017
rtoes 3.20628
lfemur 15.6009 22.9517 -11.8202
ltibia 80.7887
lfoot -2.51488 7.10279
ltoes -18.3076
198
root 24.0625 13.8958 -13.8805 -274.753 86.5235 -287.432
lowerback 18.7918 -3.75652 -3.39504
upperback 8.63725 -4.83904 0.858742
thorax -0.820537 -2.2824 3.72088
lowerneck -9.69494 -0.28842 -14.4709
upperneck -12.3489 2.57014 16.2845
head -2.31952 1.8433 7.54648
rclavicle 4.11484e-014 -1.94809e-014
rhumerus -11.4208 6.9567 -91.5075
rradius 61.5211
rwrist -16.9526
rhand -31.7356 38.6681
rfingers 7.12502
rthumb -4.99344 8.74698
lclavicle 4.11484e-014 -1.94809e-014
lhumerus -9.18872 9.58653 78.9506
lradius 49.5221
lwrist -6.89747
lhand -25.8206 39.4068
lfingers 7.12502
lthumb 0.719013 69.3854
rfemur -55.7377 -3.31895 37.8694
rtibia 63.2386
rfoot -16.8498 -4.30736
rtoes 5.61842
lfemur 13.7199 24.2522 -8.89115
ltibia 86.5852
lfoot -2.8457 6.99667
ltoes -12.3332
199
root 24.6097 13.9577 -13.9215 -285.268 87.6662 -297.525
lowerback 19.0924 -3.15589 -1.98416
upperback 8.74894 -3.80697 1.10351
thorax -1.03359 -1.7266 3.01638
lowerneck -9.47584 -0.863531 -14.5509
upperneck -12.4854 1.79266 16.5699
head -2.26582 1.44619 7.65089
rclavicle 1.42628e-014 1.39149e-014
rhumerus -11.9155 5.6751 -91.7891
rradius 62.2909
rwrist -15.8934
rhand -31.7695 39.6959
rfingers 7.12502
rthumb -5.02616 9.77548
lclavicle 1.42628e-014 1.39149e-014
lhumerus -10.3906 6.87675 79.3664
lradius 52.3806
lwrist -7.28128
lhand -24.8617 37.6371
lfingers 7.12502
lthumb 1.64511 67.6105
rfemur -52.7624 -3.67761 38.6879
rtibia 63.7468
rfoot -19.2996 -4.69121
rtoes 4.36037
lfemur 10.7848 25.1616 -6.17404
ltibia 91.9936
lfoot -2.36784 6.41475
ltoes -10.084
200
root 25.1377 14.0059 -13.9547 -291.063 88.6098 -303.198
lowerback 19.0599 -2.68206 -0.905243
upperback 8.77553 -2.99729 1.38123
thorax -1.08935 -1.29808 2.54725
lowerneck -8.89629 -1.33388 -14.4542
upperneck -12.8892 1.08464 16.4019
head -2.36521 1.06586 7.57323
rclavicle 4.35835e-014 2.15184e-014
rhumerus -12.3352 4.83572 -91.9209
rradius 62.7934
rwrist -14.5477
rhand -32.3097 39.6859
rfingers 7.12502
rthumb -5.54771 9.77852
lclavicle 4.35835e-014 2.15184e-014
lhumerus -11.5329 4.71794 79.9406
lradius 55.1391
lwrist -7.50653
lhand -24.0718 36.1753
lfingers 7.12502
lthumb 2.40803 66.1414
rfemur -50.2954 -3.97001 39.157
rtibia 64.0354
rfoot -21.1199 -5.57005
rtoes 3.18608
lfemur 6.88037 25.6843 -4.2025
ltibia 97.2352
lfoot -1.74998 5.05359
ltoes -9.81162
201
root 25.639 14.0238 -13.9825 -279.731 89.1649 -292.009
lowerback 18.8333 -2.21979 -0.470297
upperback 8.64616 -2.32683 1.66442
thorax -1.15303 -0.961993 2.4672
lowerneck -8.73158 -1.78199 -14.611
upperneck -12.8656 0.425852 16.234
head -2.28413 0.736923 7.53547
rclavicle -2.48481e-015 -6.16232e-015
rhumerus -12.7897 4.56542 -91.8511
rradius 63.1425
rwrist -13.5528
rhand -33.2989 38.9546
rfingers 7.12502
rthumb -6.50278 9.07445
lclavicle -2.48481e-015 -6.16232e-015
lhumerus -12.8516 3.24216 80.7731
lradius 57.9654
lwrist -7.38092
lhand -23.4981 34.8751
lfingers 7.12502
lthumb 2.96209 64.8343
rfemur -48.3403 -4.12989 39.1584
rtibia 64.2842
rfoot -22.3871 -6.77393
rtoes 0.118157
lfemur 2.24473 25.8486 -3.34961
ltibia 102.143
lfoot -1.57106 3.29295
ltoes -9.65929
202
root 26.1225 14.0513 -14.0017 -202.659 88.6257 -215.301
lowerback 18.5332 -2.09847 -0.162596
upperback 8.35722 -2.12469 1.98811
thorax -1.31724 -0.863471 2.59206
lowerneck -8.5339 -2.17026 -15.1662
upperneck -12.5538 -0.138124 16.4176
head -2.1312 0.459671 7.68012
rclavicle -1.25234e-014 -1.92821e-014
rhumerus -13.237 4.80458 -91.6779
rradius 63.4368
rwrist -13.2694
rhand -34.3747 38.043
rfingers 7.12502
rthumb -7.5412 8.1974
lclavicle -1.25234e-014 -1.92821e-014
lhumerus -14.1657 2.25078 81.6756
lradius 60.7324
lwrist -7.00395
lhand -22.946 33.9081
lfingers 7.12502
lthumb 3.49523 63.8592
rfemur -46.8417 -5.0015 39.0229
rtibia 64.4007
rfoot -23.3464 -8.41734
rtoes -4.63706
lfemur -3.72129 24.8575 -3.66555
ltibia 106.614
lfoot -1.55472 1.55424
ltoes -12.4144
